<?xml version="1.0" standalone="no"?>
<!DOCTYPE svg PUBLIC "-//W3C//DTD SVG 20010904//EN"
 "http://www.w3.org/TR/2001/REC-SVG-20010904/DTD/svg10.dtd">
<svg version="1.0" xmlns="http://www.w3.org/2000/svg"
 width="711.000000pt" height="398.000000pt" viewBox="0 0 711.000000 398.000000"
 preserveAspectRatio="xMidYMid meet">

<g transform="translate(0.000000,398.000000) scale(0.100000,-0.100000)"
fill="#000000" stroke="none">
<path d="M0 1990 l0 -1990 3555 0 3555 0 0 1990 0 1990 -3555 0 -3555 0 0
-1990z m6743 1758 c-14 -15 -29 -26 -31 -23 -3 3 4 16 16 28 l22 24 -20 18
c-11 10 -20 23 -20 28 0 6 14 -2 30 -18 l30 -29 -27 -28z m-4273 -1794 l0
-1065 -32 3 -33 3 -3 1063 -2 1062 35 0 35 0 0 -1066z m-1043 831 c92 -53 174
-103 181 -112 6 -9 12 -40 12 -68 l0 -51 179 -102 c98 -56 182 -109 185 -118
3 -9 6 -107 6 -220 l0 -204 40 -25 c21 -13 44 -33 50 -44 13 -24 14 -400 1
-434 -7 -17 -60 -53 -188 -125 -98 -56 -186 -104 -195 -107 -10 -4 -37 4 -66
20 l-48 26 -176 -100 c-96 -56 -182 -101 -190 -101 -7 0 -93 45 -191 100
l-176 101 -48 -26 c-26 -14 -52 -25 -57 -25 -12 0 -323 177 -364 207 l-32 24
0 225 0 225 45 27 44 27 1 206 c0 182 2 209 17 228 10 12 95 65 188 119 l170
97 3 55 c2 30 8 60 14 67 9 11 269 164 352 207 37 19 38 18 243 -99z m3196
-59 c50 -21 70 -50 70 -102 0 -37 -5 -51 -30 -76 -79 -79 -226 -34 -226 71 0
92 93 146 186 107z m1379 -326 l3 -280 153 145 154 145 119 0 c65 0 119 -3
119 -7 0 -4 -66 -74 -147 -155 -111 -111 -144 -150 -136 -160 5 -7 75 -96 155
-198 79 -102 148 -191 152 -197 6 -10 -20 -13 -117 -13 l-124 0 -103 128 c-57
70 -109 134 -117 142 -11 12 -20 8 -63 -35 l-50 -49 0 -93 0 -93 -105 0 -105
0 0 500 0 500 105 0 105 0 2 -280z m-2701 211 c120 -45 184 -134 183 -257 -1
-120 -27 -162 -212 -341 l-157 -153 203 0 202 0 0 -90 0 -90 -355 0 -355 0 0
74 0 74 195 183 c108 101 207 201 221 221 53 76 49 163 -9 199 -27 17 -46 19
-113 17 -82 -3 -91 -7 -180 -72 -9 -7 -34 4 -83 37 -39 26 -71 51 -71 56 0 4
23 29 50 55 54 51 130 89 207 105 73 15 209 6 274 -18z m579 -371 l0 -380 235
0 235 0 0 -90 0 -90 -342 2 -343 3 -3 468 -2 467 110 0 110 0 0 -380z m1567
144 c29 -14 68 -43 86 -65 60 -70 67 -110 67 -390 l0 -249 -105 0 -105 0 0
220 c0 234 -5 265 -49 305 -33 28 -134 33 -181 7 -69 -38 -74 -60 -80 -307
l-5 -220 -105 0 -105 0 0 360 0 360 100 0 100 0 3 -38 3 -37 32 24 c90 69 237
81 344 30z m-777 -339 l0 -365 -105 0 -105 0 0 365 0 365 105 0 105 0 0 -365z
m180 -595 c0 -21 -33 -29 -45 -10 -9 15 4 30 26 30 12 0 19 -7 19 -20z m-218
-52 l3 -62 36 32 c20 18 45 32 55 32 15 0 14 -4 -9 -28 -15 -15 -27 -33 -27
-39 0 -5 14 -28 31 -49 29 -37 30 -39 10 -42 -13 -2 -31 8 -49 29 -31 35 -52
33 -52 -7 0 -17 -5 -24 -20 -24 -19 0 -20 7 -20 110 0 102 1 110 20 110 16 0
19 -8 22 -62z m-1673 23 c83 -77 -4 -219 -111 -182 -72 25 -104 91 -74 149 23
44 54 62 107 62 38 0 53 -6 78 -29z m1065 18 c30 -14 38 -39 22 -71 -9 -18 -9
-25 0 -33 24 -20 26 -53 5 -74 -18 -18 -34 -21 -101 -21 l-80 0 0 105 0 105
65 0 c35 0 75 -5 89 -11z m-817 -61 c23 -22 30 -68 17 -103 -10 -25 -62 -44
-96 -35 -27 8 -28 7 -28 -26 0 -27 -4 -34 -20 -34 -19 0 -20 7 -20 109 l0 108
62 1 c51 1 67 -3 85 -20z m217 1 c15 -12 26 -30 26 -45 0 -23 -3 -24 -60 -24
-33 0 -60 -4 -60 -9 0 -20 31 -33 65 -28 39 6 53 -4 30 -23 -24 -20 -84 -15
-111 11 -34 32 -33 90 2 118 15 12 39 21 54 21 15 0 39 -9 54 -21z m241 -2 c9
-13 15 -44 15 -79 0 -51 -2 -58 -20 -58 -18 0 -20 7 -20 54 0 64 -17 85 -55
68 -22 -10 -25 -18 -25 -67 0 -48 -2 -55 -20 -55 -18 0 -20 7 -20 79 l0 78 65
1 c56 1 66 -2 80 -21z m585 3 c16 -16 20 -33 20 -80 l0 -59 -37 -1 c-21 0 -49
0 -63 0 -25 0 -50 23 -50 46 0 24 32 44 71 44 21 0 39 4 39 9 0 19 -31 33 -60
28 -16 -4 -32 -2 -36 4 -20 32 85 40 116 9z m241 -1 c14 -14 19 -33 19 -79 0
-53 -2 -60 -20 -60 -16 0 -19 8 -22 56 -3 64 -23 88 -55 68 -13 -8 -19 -27
-21 -68 -3 -48 -6 -56 -22 -56 -18 0 -20 7 -20 79 l0 78 61 1 c47 1 64 -3 80
-19z m359 -59 c0 -73 -2 -80 -20 -80 -18 0 -20 7 -20 80 0 73 2 80 20 80 18 0
20 -7 20 -80z m220 60 c16 -16 20 -34 20 -80 0 -53 -2 -60 -20 -60 -16 0 -19
8 -22 56 -2 41 -8 60 -20 68 -33 20 -53 -4 -56 -68 -3 -48 -6 -56 -22 -56 -18
0 -20 7 -20 79 l0 79 60 1 c48 0 65 -4 80 -19z m260 -65 c0 -106 -18 -135 -86
-135 -49 0 -88 15 -79 30 3 5 26 7 50 3 46 -6 75 7 75 33 0 10 -6 11 -23 5
-56 -22 -111 16 -111 76 0 53 29 73 110 71 l64 -1 0 -82z"/>
<path d="M1108 2708 c-59 -34 -105 -65 -103 -69 7 -10 201 -119 213 -119 6 0
58 28 117 61 l106 61 -112 64 c-61 35 -112 64 -113 64 0 0 -49 -28 -108 -62z"/>
<path d="M930 2413 l0 -128 110 -62 c60 -35 112 -63 115 -63 3 0 5 57 5 128
l0 127 -107 60 c-59 33 -111 62 -115 63 -4 2 -8 -54 -8 -125z"/>
<path d="M1388 2478 l-108 -62 0 -129 c0 -70 3 -126 8 -124 4 2 53 30 110 62
l102 57 0 129 c0 71 -1 129 -2 129 -2 0 -51 -28 -110 -62z"/>
<path d="M688 2347 l-128 -72 0 -147 c0 -82 2 -148 5 -148 3 0 41 20 84 45 43
25 87 45 98 45 24 0 371 -195 391 -218 15 -20 17 -423 2 -452 -5 -10 -40 -35
-77 -55 -38 -21 -74 -42 -81 -48 -9 -7 19 -28 108 -78 66 -38 123 -69 127 -69
11 0 243 133 243 139 0 3 -31 23 -70 44 -38 21 -76 45 -85 53 -13 13 -15 52
-15 239 l0 224 28 19 c63 44 351 202 367 202 10 0 56 -20 101 -46 l84 -45 0
149 0 150 -122 69 -123 70 -6 -101 c-4 -55 -7 -102 -8 -103 -10 -14 -377 -213
-393 -213 -22 0 -368 191 -387 214 -6 7 -12 56 -13 109 l-3 97 -127 -73z"/>
<path d="M638 1886 c-59 -34 -108 -63 -108 -66 0 -3 49 -33 109 -67 l110 -62
111 63 112 64 -74 42 c-40 24 -91 53 -113 65 l-40 22 -107 -61z"/>
<path d="M1578 1886 c-59 -34 -108 -63 -108 -66 0 -8 202 -123 216 -123 14 0
214 114 214 122 0 6 -54 39 -175 106 l-40 22 -107 -61z"/>
<path d="M470 1583 l0 -128 104 -57 c56 -32 106 -58 110 -58 4 0 5 57 4 126
l-3 126 -100 59 c-55 32 -103 58 -107 59 -5 0 -8 -57 -8 -127z"/>
<path d="M915 1652 l-100 -58 -3 -128 c-3 -149 -16 -143 124 -60 l94 55 0 124
c0 69 -3 125 -7 125 -5 0 -53 -26 -108 -58z"/>
<path d="M1400 1586 l0 -124 83 -47 c45 -26 97 -56 115 -67 l32 -20 0 130 0
130 -106 61 c-58 34 -110 61 -115 61 -5 0 -9 -56 -9 -124z"/>
<path d="M1853 1652 l-103 -57 0 -127 c0 -71 3 -128 8 -128 4 1 52 27 107 59
l100 59 3 126 c1 69 -1 126 -5 126 -4 0 -54 -26 -110 -58z"/>
<path d="M2845 1408 c-28 -16 -35 -28 -35 -65 0 -66 74 -97 118 -50 31 33 29
80 -4 106 -30 24 -50 26 -79 9z"/>
<path d="M3920 1390 c0 -26 3 -30 29 -30 42 0 61 9 61 30 0 21 -19 30 -61 30
-26 0 -29 -4 -29 -30z"/>
<path d="M3920 1300 c0 -31 0 -31 48 -28 43 3 47 5 47 28 0 23 -4 25 -47 28
-48 3 -48 3 -48 -28z"/>
<path d="M3116 1354 c-32 -31 -14 -84 29 -84 28 0 45 19 45 50 0 47 -42 66
-74 34z"/>
<path d="M3342 1358 c-21 -21 -13 -28 28 -28 28 0 40 4 40 14 0 25 -47 35 -68
14z"/>
<path d="M4170 1300 c-13 -8 -13 -11 1 -26 13 -13 21 -14 38 -5 11 7 21 18 21
26 0 17 -37 20 -60 5z"/>
<path d="M5205 1350 c-26 -29 -7 -70 33 -70 34 0 52 16 52 47 0 41 -55 56 -85
23z"/>
</g>
</svg>
