<?xml version="1.0" standalone="no"?>
<!DOCTYPE svg PUBLIC "-//W3C//DTD SVG 20010904//EN"
 "http://www.w3.org/TR/2001/REC-SVG-20010904/DTD/svg10.dtd">
<svg version="1.0" xmlns="http://www.w3.org/2000/svg"
 width="272.000000pt" height="272.000000pt" viewBox="0 0 272.000000 272.000000"
 preserveAspectRatio="xMidYMid meet">

<g transform="translate(0.000000,272.000000) scale(0.100000,-0.100000)"
fill="#000000" stroke="none">
<path d="M0 1360 l0 -1360 1360 0 1360 0 0 1360 0 1360 -1360 0 -1360 0 0
-1360z m1568 943 c262 -149 252 -140 252 -218 l0 -64 198 -112 c108 -61 205
-120 215 -131 15 -18 17 -46 17 -263 l0 -243 30 -12 c16 -7 41 -23 55 -36 l25
-23 0 -249 c0 -183 -3 -252 -12 -265 -13 -16 -381 -230 -427 -248 -19 -8 -36
-3 -81 20 l-56 30 -200 -115 c-109 -63 -208 -114 -220 -114 -11 0 -111 52
-221 114 l-201 115 -57 -31 c-50 -27 -60 -29 -83 -18 -42 18 -395 222 -414
238 -16 14 -18 40 -18 273 l0 258 24 18 c13 10 38 26 55 35 l31 17 0 245 0
245 24 18 c12 10 107 65 209 123 l186 105 1 46 c0 93 1 94 233 227 117 67 220
122 230 122 9 0 102 -48 205 -107z"/>
<path d="M1300 2229 c-30 -18 -86 -50 -123 -71 l-69 -40 129 -73 c113 -65 130
-72 148 -61 11 7 66 39 123 70 56 32 102 61 102 65 0 7 -233 141 -246 141 -5
0 -34 -14 -64 -31z"/>
<path d="M1040 1853 l0 -148 68 -37 c37 -21 95 -54 130 -73 l62 -36 0 148 0
148 -73 41 c-39 23 -98 56 -129 74 l-58 32 0 -149z"/>
<path d="M1553 1927 l-123 -71 0 -148 0 -149 43 25 c23 13 80 46 127 73 l85
49 3 147 c1 81 -1 147 -5 146 -5 0 -63 -33 -130 -72z"/>
<path d="M753 1779 l-143 -81 0 -169 c0 -93 3 -169 6 -169 4 0 47 23 96 51 49
28 100 52 113 52 25 0 426 -225 447 -251 19 -23 19 -502 -1 -525 -7 -9 -54
-40 -103 -68 l-90 -52 89 -51 c48 -29 113 -66 143 -83 l55 -30 143 82 144 83
-79 43 c-43 24 -90 55 -105 70 l-28 27 0 239 c0 197 3 242 15 260 20 29 418
256 448 256 12 0 63 -24 113 -52 49 -28 93 -51 97 -51 4 0 7 76 7 168 l0 168
-144 82 c-79 45 -146 82 -150 82 -3 0 -6 -49 -6 -109 0 -85 -3 -113 -15 -125
-28 -27 -420 -246 -442 -246 -20 0 -414 218 -443 246 -10 10 -16 46 -20 124
l-5 110 -142 -81z"/>
<path d="M705 1254 c-60 -36 -116 -68 -123 -72 -8 -5 31 -32 110 -78 67 -38
125 -70 129 -72 8 -3 262 139 257 143 -9 9 -251 145 -256 144 -4 0 -56 -30
-117 -65z"/>
<path d="M1777 1251 c-65 -38 -120 -71 -123 -74 -3 -2 52 -37 121 -77 l126
-72 122 70 c67 38 122 73 122 77 0 7 -234 146 -245 144 -3 0 -58 -31 -123 -68z"/>
<path d="M500 912 l0 -148 122 -70 c67 -38 125 -71 130 -72 5 -2 7 63 6 144
l-3 148 -85 49 c-47 27 -104 60 -127 73 l-43 25 0 -149z"/>
<path d="M1020 985 l-125 -73 -3 -146 c-1 -80 0 -146 3 -146 3 0 61 32 130 71
l125 71 0 149 c0 82 -1 149 -2 148 -2 0 -59 -34 -128 -74z"/>
<path d="M1580 906 l0 -144 118 -67 c64 -37 120 -70 125 -72 4 -2 7 62 7 144
l0 148 -119 68 c-65 37 -121 67 -125 67 -3 0 -6 -65 -6 -144z"/>
<path d="M2088 982 l-117 -67 -1 -148 0 -149 58 32 c31 18 90 51 129 74 l73
41 0 143 c0 107 -3 142 -12 141 -7 0 -66 -30 -130 -67z"/>
</g>
</svg>
